<?xml version="1.0" standalone="no"?>
<!DOCTYPE svg PUBLIC "-//W3C//DTD SVG 20010904//EN"
 "http://www.w3.org/TR/2001/REC-SVG-20010904/DTD/svg10.dtd">
<svg version="1.0" xmlns="http://www.w3.org/2000/svg"
 width="500.000000pt" height="500.000000pt" viewBox="0 0 500.000000 500.000000"
 preserveAspectRatio="xMidYMid meet">
<metadata>
Created by potrace 1.14, written by Peter Selinger 2001-2017
</metadata>
<g transform="translate(0.000000,500.000000) scale(0.100000,-0.100000)"
fill="#000000" stroke="none">
<path d="M2328 4680 c-10 -17 -36 -65 -59 -108 -23 -42 -45 -81 -49 -87 -4 -5
-25 -44 -47 -85 -22 -41 -74 -136 -115 -210 -41 -74 -88 -160 -105 -190 -132
-241 -452 -818 -483 -870 -21 -36 -84 -148 -141 -250 -56 -102 -162 -292 -235
-423 -74 -131 -134 -242 -134 -247 0 -6 -4 -10 -10 -10 -5 0 -10 -4 -10 -9 0
-5 -36 -73 -80 -152 -44 -78 -80 -146 -80 -150 0 -4 -3 -9 -7 -11 -5 -1 -21
-29 -38 -60 -86 -162 -616 -1099 -716 -1263 l-18 -31 745 1 744 0 18 30 c10
17 38 66 62 110 24 44 54 97 67 117 12 21 23 40 23 42 0 2 16 33 36 68 20 34
48 83 62 108 14 25 34 61 45 80 11 19 33 60 50 90 17 30 50 90 74 133 24 42
55 99 70 125 14 26 43 76 63 112 20 36 48 85 62 110 67 123 194 348 210 375
10 17 21 36 25 44 6 14 85 155 242 436 41 72 89 159 109 195 19 36 44 77 54
93 11 15 16 27 12 27 -3 0 -1 7 7 16 7 9 86 147 175 307 114 204 159 294 151
299 -9 6 -9 8 0 8 7 0 -11 38 -40 85 -29 46 -61 100 -72 119 -11 19 -114 189
-228 378 -115 189 -213 350 -218 358 -4 8 -38 64 -75 124 -36 60 -76 127 -89
150 -12 22 -27 41 -31 43 -5 2 -17 -11 -26 -27z"/>
<path d="M3355 3033 c-27 -47 -62 -107 -77 -132 -15 -25 -35 -62 -46 -81 -10
-19 -28 -51 -39 -70 -11 -19 -34 -60 -52 -90 -17 -30 -36 -62 -41 -70 -16 -27
-137 -234 -157 -270 -45 -79 -274 -476 -283 -490 -6 -8 -13 -22 -17 -30 -3 -8
-21 -39 -40 -68 -18 -29 -33 -54 -33 -56 0 -3 -27 -50 -60 -106 -33 -56 -60
-104 -60 -107 0 -3 -8 -17 -19 -31 -33 -48 -92 -162 -84 -163 4 0 219 0 478 0
452 0 470 -1 488 -19 14 -16 248 -396 291 -475 12 -21 147 -248 152 -253 2 -3
1018 -5 1136 -3 26 1 21 11 -149 294 -97 160 -185 308 -196 327 -10 19 -28 47
-38 62 -11 14 -19 28 -19 30 0 3 -39 72 -86 154 -47 82 -96 167 -109 189 -12
22 -32 58 -45 80 -13 22 -53 94 -90 160 -37 66 -100 176 -140 245 -40 68 -81
138 -90 155 -9 16 -31 53 -48 81 -16 28 -44 76 -60 105 -17 30 -93 164 -171
297 -78 134 -141 248 -141 253 0 5 -4 9 -10 9 -5 0 -10 4 -10 9 0 8 -79 151
-83 151 -1 0 -24 -39 -52 -87z"/>
</g>
</svg>
